<svg xmlns="http://www.w3.org/2000/svg" width="80" height="80"><path d="M50 13c7.215 6.125 10.488 12.629 11.375 21.938C61.197 39.832 59.583 44.402 58 49l2.59 2.414 3.347 3.211 1.71 1.582c2.753 2.671 4.203 4.294 5.33 8.04C71 67 71 67 69.437 69.436 67 71 67 71 64.248 70.978c-4.395-1.322-6.56-3.732-9.622-7.04l-1.652-1.72A424 424 0 0 1 49 58l-1.617.656c-8.672 3.241-16.415 3.631-24.988-.203-6.533-3.964-11.03-9.902-12.997-17.27-1.435-7.868-.27-14.9 4.23-21.613C22.902 8.143 37.23 5.25 50 13m-26.543 9.328c-3.341 3.723-5.407 7.57-5.488 12.617C18.345 39.891 19.756 43.142 23 47c4.282 3.6 8.392 5.253 14 5 4.447-.855 7.83-2.42 10.875-5.812 3.434-5.152 4.67-9.156 3.66-15.235-1.242-4.533-3.759-7.3-7.285-10.265-7.109-3.691-14.544-3.738-20.793 1.64"/></svg>